<?xml version="1.0" encoding="utf-8"?>
<!-- Generator: Adobe Illustrator 23.1.0, SVG Export Plug-In . SVG Version: 6.00 Build 0)  -->
<svg version="1.1" id="Layer_1" xmlns="http://www.w3.org/2000/svg" xmlns:xlink="http://www.w3.org/1999/xlink" x="0px" y="0px"
	 viewBox="0 0 313.4 328.8" style="enable-background:new 0 0 313.4 328.8;" xml:space="preserve">
<style type="text/css">
	.st0{fill:#BEBEBE;}
</style>
<g>
	<g>
		<path class="st0" d="M102.8,328.8L102.8,328.8c-20.7-0.4-28.6-24.3-29.5-27.1L2.6,70c-4.2-13.6-3.2-24.6,2.8-32.6
			c3.9-5.2,11.7-11.3,26.6-11c5.5,0.1,9.7,1.1,10.2,1.2l235.4,54.8c15.1,3.5,24.4,10.7,27.6,21.2c5.1,16.7-9.1,32.6-10.7,34.3
			L129.9,314.8C121.1,324.3,111.9,329,102.8,328.8z M30.9,50.9c-4.2-0.1-5.6,1.1-5.8,1.4c-1.2,1.7-1.5,2.4,1,10.6l70.7,231.7
			c1.6,5,4.2,9.5,6.5,9.7l0,0c0,0,2.8,0,8.6-6.2l164.8-176.7c3-3.3,5.8-8.8,5.2-10.5c-0.5-1.2-2.3-2.8-9.8-4.5L36.7,51.6l0,0
			C36.7,51.6,33.8,50.9,30.9,50.9z"/>
	</g>
	<g>
		<path class="st0" d="M76.4,310c-7.6,2.8-15.6,3.4-21.8,1.3l0,0c-19.7-6.4-20.2-31.6-20.2-34.4V51.3l23.2,5.2l0.1,220.8
			c0.1,5.2,1.4,10.1,4.6,10.7l0,0c0,0,1.6,0.5,6.4-1.6L76.4,310z M90.5,274.1l190.4-110.2c3.9-2.3,8.4-5.7,8-8.5
			c-0.1-0.4-1-2.9-5.1-5.8l16-18.1c9,6.9,13.6,14.9,13.6,23.9c0,17.4-18.2,28.5-20.2,29.6L97.9,297.3L90.5,274.1z M261.7,137.2
			L74.6,28.3c0,0-4.7-3-7.4-3.9c-4-1.3-6,0-6.3,0.3c-1.1,0.8-1.5,1.3-2,6.8L34.8,27C36.1,17,40,9.5,46.5,4.9
			C51.7,1.1,60.9-2.4,75,2.2c5.2,1.7,9,3.9,9.4,4.1l194.7,112.3L261.7,137.2z"/>
	</g>
</g>
</svg>
